<?xml version="1.0" encoding="UTF-8" standalone="no"?>
<svg
   xmlns:dc="http://purl.org/dc/elements/1.1/"
   xmlns:cc="http://creativecommons.org/ns#"
   xmlns:rdf="http://www.w3.org/1999/02/22-rdf-syntax-ns#"
   xmlns:svg="http://www.w3.org/2000/svg"
   xmlns="http://www.w3.org/2000/svg"
   xmlns:sodipodi="http://sodipodi.sourceforge.net/DTD/sodipodi-0.dtd"
   xmlns:inkscape="http://www.inkscape.org/namespaces/inkscape"
   inkscape:version="1.0 (4035a4fb49, 2020-05-01)"
   sodipodi:docname="setup.svg"
   version="1.1"
   width="512"
   viewBox="0 0 512 512"
   height="512"
   enable-background="new 0 0 512 512"
   id="Capa_1">
  <metadata
     id="metadata38">
    <rdf:RDF>
      <cc:Work
         rdf:about="">
        <dc:format>image/svg+xml</dc:format>
        <dc:type
           rdf:resource="http://purl.org/dc/dcmitype/StillImage" />
      </cc:Work>
    </rdf:RDF>
  </metadata>
  <defs
     id="defs36" />
  <sodipodi:namedview
     inkscape:current-layer="g31"
     inkscape:window-maximized="1"
     inkscape:window-y="-8"
     inkscape:window-x="1912"
     inkscape:cy="256"
     inkscape:cx="137.49213"
     inkscape:zoom="1.7382812"
     showgrid="false"
     id="namedview34"
     inkscape:window-height="1377"
     inkscape:window-width="2560"
     inkscape:pageshadow="2"
     inkscape:pageopacity="0"
     guidetolerance="10"
     gridtolerance="10"
     objecttolerance="10"
     borderopacity="1"
     bordercolor="#666666"
     pagecolor="#ffffff" />
  <g
     id="g31">
    <path
       style="fill:#e69144;fill-opacity:1"
       id="path25"
       d="m466.88 210.877h-265.45c-13.6-17.77-35.03-29.25-59.08-29.25-24.06 0-45.48 11.48-59.08 29.25h-38.15c-24.88 0-45.12 20.24-45.12 45.12s20.24 45.12 45.12 45.12h38.15c29.868 39.026 88.345 38.957 118.16 0h265.45c24.88 0 45.12-20.24 45.12-45.12s-20.24-45.12-45.12-45.12zm-397.36 60.24h-24.4c-8.34 0-15.12-6.78-15.12-15.12s6.78-15.12 15.12-15.12h24.4c-2.054 9.922-2.054 20.314 0 30.24zm72.83 29.25c-19.16 0-35.52-12.2-41.71-29.25-10.493-28.794 10.964-59.49 41.71-59.49 19.15 0 35.52 12.2 41.71 29.25 10.504 28.827-10.998 59.49-41.71 59.49zm324.53-29.25h-251.7c2.054-9.923 2.054-20.314 0-30.24h251.7c8.34 0 15.12 6.78 15.12 15.12s-6.78 15.12-15.12 15.12z" />
    <path
       style="fill:#e69144;fill-opacity:1"
       id="path27"
       d="m45.12 119.497h258.52c29.85 39.002 88.326 38.955 118.14 0h45.1c24.88 0 45.12-20.25 45.12-45.13s-20.24-45.12-45.12-45.12h-45.09c-29.868-39.026-88.345-38.957-118.16 0h-258.51c-24.88 0-45.12 20.24-45.12 45.12s20.24 45.13 45.12 45.13zm390.42-60.25h31.34c8.34 0 15.12 6.78 15.12 15.12s-6.78 15.13-15.12 15.13h-31.35c2.044-9.78 2.087-20.214.01-30.25zm-114.54 0c14.12-38.894 69.298-38.899 83.42 0 3.552 9.745 3.545 20.523 0 30.25-14.126 38.888-69.297 38.878-83.42 0-3.536-9.704-3.56-20.48 0-30.25zm-275.88 0h244.76c-2.081 10.056-2.03 20.49.01 30.25h-244.77c-8.34 0-15.12-6.79-15.12-15.13s6.78-15.12 15.12-15.12z" />
    <path
       style="fill:#e69144;fill-opacity:1"
       id="path29"
       d="m466.88 392.497h-151.81c-29.85-39.002-88.326-38.955-118.14 0h-151.81c-24.88 0-45.12 20.25-45.12 45.13s20.24 45.12 45.12 45.12h151.8c13.6 17.77 35.02 29.25 59.08 29.25s45.48-11.48 59.08-29.25h151.8c24.88 0 45.12-20.24 45.12-45.12s-20.24-45.13-45.12-45.13zm-283.71 60.25h-138.05c-8.34 0-15.12-6.78-15.12-15.12s6.78-15.13 15.12-15.13h138.06c-2.052 9.818-2.079 20.255-.01 30.25zm72.83 29.25c-24.466 0-44.37-19.896-44.37-44.37 0-24.524 19.945-44.37 44.37-44.37 24.428 0 44.37 19.849 44.37 44.37 0 24.466-19.896 44.37-44.37 44.37zm210.88-29.25h-138.05c2.077-10.035 2.034-20.47-.01-30.25h138.06c8.34 0 15.12 6.79 15.12 15.13s-6.78 15.12-15.12 15.12z" />
  </g>
</svg>
